<svg width="28" height="28" viewBox="0 0 28 28" fill="none" xmlns="http://www.w3.org/2000/svg">
<path d="M16.9167 15.6667H16.2583L16.025 15.4417C16.8417 14.4917 17.3333 13.2583 17.3333 11.9167C17.3333 8.925 14.9083 6.5 11.9167 6.5C8.925 6.5 6.5 8.925 6.5 11.9167C6.5 14.9083 8.925 17.3333 11.9167 17.3333C13.2583 17.3333 14.4917 16.8417 15.4417 16.025L15.6667 16.2583V16.9167L19.8333 21.075L21.075 19.8333L16.9167 15.6667ZM11.9167 15.6667C9.84167 15.6667 8.16667 13.9917 8.16667 11.9167C8.16667 9.84167 9.84167 8.16667 11.9167 8.16667C13.9917 8.16667 15.6667 9.84167 15.6667 11.9167C15.6667 13.9917 13.9917 15.6667 11.9167 15.6667Z" fill="black"/>
<circle cx="14" cy="14" r="14" fill="#D9D9D9" fill-opacity="0.3"/>
</svg>
