<svg width="20" height="20" viewBox="0 0 20 20" fill="none" xmlns="http://www.w3.org/2000/svg">
<path d="M9.33426 1.04894C9.54381 0.404018 10.4562 0.404018 10.6657 1.04894L12.537 6.80811C12.6307 7.09652 12.8995 7.2918 13.2027 7.2918H19.2583C19.9364 7.2918 20.2183 8.15953 19.6697 8.55811L14.7707 12.1175C14.5254 12.2957 14.4227 12.6117 14.5164 12.9001L16.3877 18.6593C16.5972 19.3042 15.8591 19.8405 15.3105 19.4419L10.4115 15.8825C10.1661 15.7043 9.83389 15.7043 9.58855 15.8825L4.68951 19.4419C4.14091 19.8405 3.40277 19.3042 3.61232 18.6593L5.48358 12.9001C5.5773 12.6117 5.47464 12.2957 5.2293 12.1175L0.330251 8.55811C-0.218348 8.15953 0.063594 7.2918 0.7417 7.2918H6.79725C7.10051 7.2918 7.36928 7.09652 7.46299 6.80811L9.33426 1.04894Z" fill="#E7D856"/>
</svg>
