<svg width="28" height="28" viewBox="0 0 28 28" fill="none" xmlns="http://www.w3.org/2000/svg">
<path d="M19 17.4C18.3667 17.4 17.8 17.65 17.3667 18.0417L11.425 14.5834C11.4667 14.3917 11.5 14.2 11.5 14C11.5 13.8 11.4667 13.6084 11.425 13.4167L17.3 9.99169C17.75 10.4084 18.3417 10.6667 19 10.6667C20.3833 10.6667 21.5 9.55002 21.5 8.16669C21.5 6.78335 20.3833 5.66669 19 5.66669C17.6167 5.66669 16.5 6.78335 16.5 8.16669C16.5 8.36669 16.5333 8.55835 16.575 8.75002L10.7 12.175C10.25 11.7584 9.65833 11.5 9 11.5C7.61667 11.5 6.5 12.6167 6.5 14C6.5 15.3834 7.61667 16.5 9 16.5C9.65833 16.5 10.25 16.2417 10.7 15.825L16.6333 19.2917C16.5917 19.4667 16.5667 19.65 16.5667 19.8334C16.5667 21.175 17.6583 22.2667 19 22.2667C20.3417 22.2667 21.4333 21.175 21.4333 19.8334C21.4333 18.4917 20.3417 17.4 19 17.4Z" fill="black"/>
<circle cx="14" cy="14" r="14" fill="#D9D9D9" fill-opacity="0.3"/>
</svg>
